M48
; DRILL file KiCad 10.0.5 date 2026-09-01T18:48:38
; FORMAT={-:-/ absolute / inch / decimal}
; #@! TF.CreationDate,2026-09-01T18:48:38+01:00
; #@! TF.GenerationSoftware,Kicad,Pcbnew,10.0.5
; #@! TF.FileFunction,Plated,1,2,PTH
FMAT,2
INCH
; #@! TA.AperFunction,Plated,PTH,ViaDrill
T1C0.0118
; #@! TA.AperFunction,Plated,PTH,ComponentDrill
T2C0.0315
; #@! TA.AperFunction,Plated,PTH,ComponentDrill
T3C0.0591
; #@! TA.AperFunction,Plated,PTH,ComponentDrill
T4C0.0866
%
G90
G05
T1
X2.5098Y-2.4445
X2.6098Y-2.4445
X2.7098Y-2.4445
X2.8098Y-2.4445
X2.8098Y-3.0807
X2.9921Y-3.4449
X2.9921Y-3.5508
X3.0315Y-3.4449
X3.0315Y-3.5272
T2
X2.154Y-3.1839
X2.154Y-3.4839
X2.154Y-3.9339
X2.154Y-4.2339
X2.154Y-4.6839
X2.154Y-4.9839
X2.8465Y-3.1839
X2.8465Y-3.4839
X2.8465Y-3.9339
X2.8465Y-4.2339
X2.8465Y-4.6839
X2.8465Y-4.9839
X3.5965Y-3.1839
X3.5965Y-3.4839
X3.5965Y-3.9339
X3.5965Y-4.2339
X3.5965Y-4.6839
X3.5965Y-4.9839
X4.3465Y-3.1839
X4.3465Y-3.4839
X4.3465Y-3.9339
X4.3465Y-4.2339
X4.3465Y-4.6839
X4.3465Y-4.9839
X5.0965Y-3.1839
X5.0965Y-3.4839
X5.0965Y-3.9339
X5.0965Y-4.2339
X5.0965Y-4.6839
X5.0965Y-4.9839
X5.8465Y-3.1839
X5.8465Y-3.4839
X5.8465Y-3.9339
X5.8465Y-4.2339
X5.8465Y-4.6839
X5.8465Y-4.9839
X6.5965Y-3.1839
X6.5965Y-3.4839
X6.5965Y-3.9339
X6.5965Y-4.2339
X6.5965Y-4.6839
X6.5965Y-4.9839
X7.3465Y-3.1839
X7.3465Y-3.4839
X7.3465Y-3.9339
X7.3465Y-4.2339
X7.3465Y-4.6839
X7.3465Y-4.9839
X8.0965Y-3.1839
X8.0965Y-3.4839
X8.0965Y-3.9339
X8.0965Y-4.2339
X8.0965Y-4.6839
X8.0965Y-4.9839
X8.8465Y-3.1839
X8.8465Y-3.4839
X8.8465Y-3.9339
X8.8465Y-4.2339
X8.8465Y-4.6839
X8.8465Y-4.9839
T3
X2.3215Y-3.2839
X2.3215Y-4.0339
X2.3215Y-4.7839
X2.5715Y-3.1839
X2.5715Y-3.9339
X2.5715Y-4.6839
X3.0715Y-3.2839
X3.0715Y-4.0339
X3.0715Y-4.7839
X3.3215Y-3.1839
X3.3215Y-3.9339
X3.3215Y-4.6839
X3.8215Y-3.2839
X3.8215Y-4.0339
X3.8215Y-4.7839
X4.0715Y-3.1839
X4.0715Y-3.9339
X4.0715Y-4.6839
X4.5715Y-3.2839
X4.5715Y-4.0339
X4.5715Y-4.7839
X4.8215Y-3.1839
X4.8215Y-3.9339
X4.8215Y-4.6839
X5.3215Y-3.2839
X5.3215Y-4.0339
X5.3215Y-4.7839
X5.5715Y-3.1839
X5.5715Y-3.9339
X5.5715Y-4.6839
X6.0715Y-3.2839
X6.0715Y-4.0339
X6.0715Y-4.7839
X6.3215Y-3.1839
X6.3215Y-3.9339
X6.3215Y-4.6839
X6.8215Y-3.2839
X6.8215Y-4.0339
X6.8215Y-4.7839
X7.0715Y-3.1839
X7.0715Y-3.9339
X7.0715Y-4.6839
X7.5715Y-3.2839
X7.5715Y-4.0339
X7.5715Y-4.7839
X7.8215Y-3.1839
X7.8215Y-3.9339
X7.8215Y-4.6839
X8.3215Y-3.2839
X8.3215Y-4.0339
X8.3215Y-4.7839
X8.5715Y-3.1839
X8.5715Y-3.9339
X8.5715Y-4.6839
X9.0715Y-3.2839
X9.0715Y-4.0339
X9.0715Y-4.7839
X9.3215Y-3.1839
X9.3215Y-3.9339
X9.3215Y-4.6839
T4
X2.8465Y-3.7589
X2.8465Y-4.5089
X8.8465Y-3.7589
X8.8465Y-4.5089
M30
