%TF.GenerationSoftware,KiCad,Pcbnew,10.0.5*%
%TF.CreationDate,2026-09-01T18:48:01+01:00*%
%TF.ProjectId,the-crux,7468652d-6372-4757-982e-6b696361645f,rev?*%
%TF.SameCoordinates,Original*%
%TF.FileFunction,Copper,L2,Bot*%
%TF.FilePolarity,Positive*%
%FSLAX46Y46*%
G04 Gerber Fmt 4.6, Leading zero omitted, Abs format (unit mm)*
G04 Created by KiCad (PCBNEW 10.0.5) date 2026-09-01 18:48:01*
%MOMM*%
%LPD*%
G01*
G04 APERTURE LIST*
G04 Aperture macros list*
%AMRoundRect*
0 Rectangle with rounded corners*
0 $1 Rounding radius*
0 $2 $3 $4 $5 $6 $7 $8 $9 X,Y pos of 4 corners*
0 Add a 4 corners polygon primitive as box body*
4,1,4,$2,$3,$4,$5,$6,$7,$8,$9,$2,$3,0*
0 Add four circle primitives for the rounded corners*
1,1,$1+$1,$2,$3*
1,1,$1+$1,$4,$5*
1,1,$1+$1,$6,$7*
1,1,$1+$1,$8,$9*
0 Add four rect primitives between the rounded corners*
20,1,$1+$1,$2,$3,$4,$5,0*
20,1,$1+$1,$4,$5,$6,$7,0*
20,1,$1+$1,$6,$7,$8,$9,0*
20,1,$1+$1,$8,$9,$2,$3,0*%
G04 Aperture macros list end*
%TA.AperFunction,ComponentPad*%
%ADD10C,2.200000*%
%TD*%
%TA.AperFunction,ComponentPad*%
%ADD11RoundRect,0.250000X-0.550000X0.550000X-0.550000X-0.550000X0.550000X-0.550000X0.550000X0.550000X0*%
%TD*%
%TA.AperFunction,ComponentPad*%
%ADD12C,1.600000*%
%TD*%
%TA.AperFunction,ComponentPad*%
%ADD13C,4.400000*%
%TD*%
%TA.AperFunction,ViaPad*%
%ADD14C,0.600000*%
%TD*%
%TA.AperFunction,Conductor*%
%ADD15C,0.200000*%
%TD*%
G04 APERTURE END LIST*
D10*
%TO.P,SW24,1,1_1*%
%TO.N,Net-(D24-K)*%
X122465000Y-118970000D03*
%TO.P,SW24,2,2_2*%
%TO.N,/COL4*%
X116115000Y-121510000D03*
%TD*%
D11*
%TO.P,D4,1,K_1*%
%TO.N,Net-(D4-K)*%
X110400000Y-80870000D03*
D12*
%TO.P,D4,2,A_2*%
%TO.N,/ROW1*%
X110400000Y-88490000D03*
%TD*%
D13*
%TO.P,H3,1*%
%TO.N,N/C*%
X224700000Y-95475000D03*
%TD*%
D10*
%TO.P,SW13,1,1_1*%
%TO.N,Net-(D13-K)*%
X103415000Y-99920000D03*
%TO.P,SW13,2,2_2*%
%TO.N,/COL3*%
X97065000Y-102460000D03*
%TD*%
D11*
%TO.P,D11,1,K_1*%
%TO.N,Net-(D11-K)*%
X54712500Y-99920000D03*
D12*
%TO.P,D11,2,A_2*%
%TO.N,/ROW3*%
X54712500Y-107540000D03*
%TD*%
D10*
%TO.P,SW14,1,1_1*%
%TO.N,Net-(D14-K)*%
X122465000Y-99920000D03*
%TO.P,SW14,2,2_2*%
%TO.N,/COL4*%
X116115000Y-102460000D03*
%TD*%
%TO.P,SW8,1,1_1*%
%TO.N,Net-(D8-K)*%
X198665000Y-80870000D03*
%TO.P,SW8,2,2_2*%
%TO.N,/COL3*%
X192315000Y-83410000D03*
%TD*%
D11*
%TO.P,D3,1,K_1*%
%TO.N,Net-(D3-K)*%
X91350000Y-80870000D03*
D12*
%TO.P,D3,2,A_2*%
%TO.N,/ROW1*%
X91350000Y-88490000D03*
%TD*%
D11*
%TO.P,D27,1,K_1*%
%TO.N,Net-(D27-K)*%
X167550000Y-118970000D03*
D12*
%TO.P,D27,2,A_2*%
%TO.N,/ROW6*%
X167550000Y-126590000D03*
%TD*%
D11*
%TO.P,D23,1,K_1*%
%TO.N,Net-(D23-K)*%
X91350000Y-118970000D03*
D12*
%TO.P,D23,2,A_2*%
%TO.N,/ROW5*%
X91350000Y-126590000D03*
%TD*%
D10*
%TO.P,SW17,1,1_1*%
%TO.N,Net-(D17-K)*%
X179615000Y-99920000D03*
%TO.P,SW17,2,2_2*%
%TO.N,/COL2*%
X173265000Y-102460000D03*
%TD*%
%TO.P,SW29,1,1_1*%
%TO.N,Net-(D29-K)*%
X217715000Y-118970000D03*
%TO.P,SW29,2,2_2*%
%TO.N,/COL4*%
X211365000Y-121510000D03*
%TD*%
%TO.P,SW7,1,1_1*%
%TO.N,Net-(D7-K)*%
X179615000Y-80870000D03*
%TO.P,SW7,2,2_2*%
%TO.N,/COL2*%
X173265000Y-83410000D03*
%TD*%
D11*
%TO.P,D30,1,K_1*%
%TO.N,Net-(D30-K)*%
X224700000Y-118970000D03*
D12*
%TO.P,D30,2,A_2*%
%TO.N,/ROW6*%
X224700000Y-126590000D03*
%TD*%
D11*
%TO.P,D25,1,K_1*%
%TO.N,Net-(D25-K)*%
X129450000Y-118970000D03*
D12*
%TO.P,D25,2,A_2*%
%TO.N,/ROW5*%
X129450000Y-126590000D03*
%TD*%
D10*
%TO.P,SW20,1,1_1*%
%TO.N,Net-(D20-K)*%
X236765000Y-99920000D03*
%TO.P,SW20,2,2_2*%
%TO.N,/COL5*%
X230415000Y-102460000D03*
%TD*%
D11*
%TO.P,D7,1,K_1*%
%TO.N,Net-(D7-K)*%
X167550000Y-80870000D03*
D12*
%TO.P,D7,2,A_2*%
%TO.N,/ROW2*%
X167550000Y-88490000D03*
%TD*%
D11*
%TO.P,D14,1,K_1*%
%TO.N,Net-(D14-K)*%
X110400000Y-99920000D03*
D12*
%TO.P,D14,2,A_2*%
%TO.N,/ROW3*%
X110400000Y-107540000D03*
%TD*%
D10*
%TO.P,SW23,1,1_1*%
%TO.N,Net-(D23-K)*%
X103415000Y-118970000D03*
%TO.P,SW23,2,2_2*%
%TO.N,/COL3*%
X97065000Y-121510000D03*
%TD*%
%TO.P,SW6,1,1_1*%
%TO.N,Net-(D6-K)*%
X160565000Y-80870000D03*
%TO.P,SW6,2,2_2*%
%TO.N,/COL1*%
X154215000Y-83410000D03*
%TD*%
%TO.P,SW11,1,1_1*%
%TO.N,Net-(D11-K)*%
X65315000Y-99920000D03*
%TO.P,SW11,2,2_2*%
%TO.N,/COL1*%
X58965000Y-102460000D03*
%TD*%
D11*
%TO.P,D2,1,K_1*%
%TO.N,Net-(D2-K)*%
X72300000Y-80870000D03*
D12*
%TO.P,D2,2,A_2*%
%TO.N,/ROW1*%
X72300000Y-88490000D03*
%TD*%
D10*
%TO.P,SW1,1,1_1*%
%TO.N,Net-(D1-K)*%
X65315000Y-80870000D03*
%TO.P,SW1,2,2_2*%
%TO.N,/COL1*%
X58965000Y-83410000D03*
%TD*%
D13*
%TO.P,H4,1*%
%TO.N,N/C*%
X224700000Y-114525000D03*
%TD*%
D11*
%TO.P,D26,1,K_1*%
%TO.N,Net-(D26-K)*%
X148500000Y-118970000D03*
D12*
%TO.P,D26,2,A_2*%
%TO.N,/ROW6*%
X148500000Y-126590000D03*
%TD*%
D11*
%TO.P,D5,1,K_1*%
%TO.N,Net-(D5-K)*%
X129450000Y-80870000D03*
D12*
%TO.P,D5,2,A_2*%
%TO.N,/ROW1*%
X129450000Y-88490000D03*
%TD*%
D10*
%TO.P,SW25,1,1_1*%
%TO.N,Net-(D25-K)*%
X141515000Y-118970000D03*
%TO.P,SW25,2,2_2*%
%TO.N,/COL5*%
X135165000Y-121510000D03*
%TD*%
D13*
%TO.P,H1,1*%
%TO.N,N/C*%
X72300000Y-95475000D03*
%TD*%
D10*
%TO.P,SW21,1,1_1*%
%TO.N,Net-(D21-K)*%
X65315000Y-118970000D03*
%TO.P,SW21,2,2_2*%
%TO.N,/COL1*%
X58965000Y-121510000D03*
%TD*%
D11*
%TO.P,D19,1,K_1*%
%TO.N,Net-(D19-K)*%
X205650000Y-99920000D03*
D12*
%TO.P,D19,2,A_2*%
%TO.N,/ROW4*%
X205650000Y-107540000D03*
%TD*%
D10*
%TO.P,SW26,1,1_1*%
%TO.N,Net-(D26-K)*%
X160565000Y-118970000D03*
%TO.P,SW26,2,2_2*%
%TO.N,/COL1*%
X154215000Y-121510000D03*
%TD*%
%TO.P,SW19,1,1_1*%
%TO.N,Net-(D19-K)*%
X217715000Y-99920000D03*
%TO.P,SW19,2,2_2*%
%TO.N,/COL4*%
X211365000Y-102460000D03*
%TD*%
D11*
%TO.P,D8,1,K_1*%
%TO.N,Net-(D8-K)*%
X186600000Y-80870000D03*
D12*
%TO.P,D8,2,A_2*%
%TO.N,/ROW2*%
X186600000Y-88490000D03*
%TD*%
D11*
%TO.P,D15,1,K_1*%
%TO.N,Net-(D15-K)*%
X129450000Y-99920000D03*
D12*
%TO.P,D15,2,A_2*%
%TO.N,/ROW3*%
X129450000Y-107540000D03*
%TD*%
D11*
%TO.P,D12,1,K_1*%
%TO.N,Net-(D12-K)*%
X72300000Y-99920000D03*
D12*
%TO.P,D12,2,A_2*%
%TO.N,/ROW3*%
X72300000Y-107540000D03*
%TD*%
D10*
%TO.P,SW22,1,1_1*%
%TO.N,Net-(D22-K)*%
X84365000Y-118970000D03*
%TO.P,SW22,2,2_2*%
%TO.N,/COL2*%
X78015000Y-121510000D03*
%TD*%
%TO.P,SW9,1,1_1*%
%TO.N,Net-(D9-K)*%
X217715000Y-80870000D03*
%TO.P,SW9,2,2_2*%
%TO.N,/COL4*%
X211365000Y-83410000D03*
%TD*%
D11*
%TO.P,D18,1,K_1*%
%TO.N,Net-(D18-K)*%
X186600000Y-99920000D03*
D12*
%TO.P,D18,2,A_2*%
%TO.N,/ROW4*%
X186600000Y-107540000D03*
%TD*%
D10*
%TO.P,SW28,1,1_1*%
%TO.N,Net-(D28-K)*%
X198665000Y-118970000D03*
%TO.P,SW28,2,2_2*%
%TO.N,/COL3*%
X192315000Y-121510000D03*
%TD*%
%TO.P,SW30,1,1_1*%
%TO.N,Net-(D30-K)*%
X236765000Y-118970000D03*
%TO.P,SW30,2,2_2*%
%TO.N,/COL5*%
X230415000Y-121510000D03*
%TD*%
D11*
%TO.P,D10,1,K_1*%
%TO.N,Net-(D10-K)*%
X224700000Y-80870000D03*
D12*
%TO.P,D10,2,A_2*%
%TO.N,/ROW2*%
X224700000Y-88490000D03*
%TD*%
D11*
%TO.P,D22,1,K_1*%
%TO.N,Net-(D22-K)*%
X72300000Y-118970000D03*
D12*
%TO.P,D22,2,A_2*%
%TO.N,/ROW5*%
X72300000Y-126590000D03*
%TD*%
D10*
%TO.P,SW27,1,1_1*%
%TO.N,Net-(D27-K)*%
X179615000Y-118970000D03*
%TO.P,SW27,2,2_2*%
%TO.N,/COL2*%
X173265000Y-121510000D03*
%TD*%
%TO.P,SW10,1,1_1*%
%TO.N,Net-(D10-K)*%
X236765000Y-80870000D03*
%TO.P,SW10,2,2_2*%
%TO.N,/COL5*%
X230415000Y-83410000D03*
%TD*%
D13*
%TO.P,H2,1*%
%TO.N,N/C*%
X72300000Y-114525000D03*
%TD*%
D11*
%TO.P,D29,1,K_1*%
%TO.N,Net-(D29-K)*%
X205650000Y-118970000D03*
D12*
%TO.P,D29,2,A_2*%
%TO.N,/ROW6*%
X205650000Y-126590000D03*
%TD*%
D10*
%TO.P,SW16,1,1_1*%
%TO.N,Net-(D16-K)*%
X160565000Y-99920000D03*
%TO.P,SW16,2,2_2*%
%TO.N,/COL1*%
X154215000Y-102460000D03*
%TD*%
%TO.P,SW15,1,1_1*%
%TO.N,Net-(D15-K)*%
X141515000Y-99920000D03*
%TO.P,SW15,2,2_2*%
%TO.N,/COL5*%
X135165000Y-102460000D03*
%TD*%
D11*
%TO.P,D6,1,K_1*%
%TO.N,Net-(D6-K)*%
X148500000Y-80870000D03*
D12*
%TO.P,D6,2,A_2*%
%TO.N,/ROW2*%
X148500000Y-88490000D03*
%TD*%
D11*
%TO.P,D24,1,K_1*%
%TO.N,Net-(D24-K)*%
X110400000Y-118970000D03*
D12*
%TO.P,D24,2,A_2*%
%TO.N,/ROW5*%
X110400000Y-126590000D03*
%TD*%
D11*
%TO.P,D13,1,K_1*%
%TO.N,Net-(D13-K)*%
X91350000Y-99920000D03*
D12*
%TO.P,D13,2,A_2*%
%TO.N,/ROW3*%
X91350000Y-107540000D03*
%TD*%
D11*
%TO.P,D17,1,K_1*%
%TO.N,Net-(D17-K)*%
X167550000Y-99920000D03*
D12*
%TO.P,D17,2,A_2*%
%TO.N,/ROW4*%
X167550000Y-107540000D03*
%TD*%
D11*
%TO.P,D28,1,K_1*%
%TO.N,Net-(D28-K)*%
X186600000Y-118970000D03*
D12*
%TO.P,D28,2,A_2*%
%TO.N,/ROW6*%
X186600000Y-126590000D03*
%TD*%
D10*
%TO.P,SW18,1,1_1*%
%TO.N,Net-(D18-K)*%
X198665000Y-99920000D03*
%TO.P,SW18,2,2_2*%
%TO.N,/COL3*%
X192315000Y-102460000D03*
%TD*%
D11*
%TO.P,D1,1,K_1*%
%TO.N,Net-(D1-K)*%
X54712500Y-80870000D03*
D12*
%TO.P,D1,2,A_2*%
%TO.N,/ROW1*%
X54712500Y-88490000D03*
%TD*%
D10*
%TO.P,SW3,1,1_1*%
%TO.N,Net-(D3-K)*%
X103415000Y-80870000D03*
%TO.P,SW3,2,2_2*%
%TO.N,/COL3*%
X97065000Y-83410000D03*
%TD*%
D11*
%TO.P,D20,1,K_1*%
%TO.N,Net-(D20-K)*%
X224700000Y-99920000D03*
D12*
%TO.P,D20,2,A_2*%
%TO.N,/ROW4*%
X224700000Y-107540000D03*
%TD*%
D10*
%TO.P,SW2,1,1_1*%
%TO.N,Net-(D2-K)*%
X84365000Y-80870000D03*
%TO.P,SW2,2,2_2*%
%TO.N,/COL2*%
X78015000Y-83410000D03*
%TD*%
%TO.P,SW5,1,1_1*%
%TO.N,Net-(D5-K)*%
X141515000Y-80870000D03*
%TO.P,SW5,2,2_2*%
%TO.N,/COL5*%
X135165000Y-83410000D03*
%TD*%
%TO.P,SW4,1,1_1*%
%TO.N,Net-(D4-K)*%
X122465000Y-80870000D03*
%TO.P,SW4,2,2_2*%
%TO.N,/COL4*%
X116115000Y-83410000D03*
%TD*%
D11*
%TO.P,D21,1,K_1*%
%TO.N,Net-(D21-K)*%
X54712500Y-118970000D03*
D12*
%TO.P,D21,2,A_2*%
%TO.N,/ROW5*%
X54712500Y-126590000D03*
%TD*%
D11*
%TO.P,D16,1,K_1*%
%TO.N,Net-(D16-K)*%
X148500000Y-99920000D03*
D12*
%TO.P,D16,2,A_2*%
%TO.N,/ROW4*%
X148500000Y-107540000D03*
%TD*%
D11*
%TO.P,D9,1,K_1*%
%TO.N,Net-(D9-K)*%
X205650000Y-80870000D03*
D12*
%TO.P,D9,2,A_2*%
%TO.N,/ROW2*%
X205650000Y-88490000D03*
%TD*%
D10*
%TO.P,SW12,1,1_1*%
%TO.N,Net-(D12-K)*%
X84365000Y-99920000D03*
%TO.P,SW12,2,2_2*%
%TO.N,/COL2*%
X78015000Y-102460000D03*
%TD*%
D14*
%TO.N,/COL4*%
X76000000Y-87500000D03*
X76000000Y-90190000D03*
%TO.N,/COL5*%
X77000000Y-87500000D03*
X77000000Y-89590000D03*
X63750000Y-62090000D03*
%TO.N,/COL4*%
X66290000Y-62090000D03*
%TO.N,/COL3*%
X71370000Y-62090000D03*
%TO.N,/COL2*%
X68830000Y-62090000D03*
%TO.N,/COL1*%
X71370000Y-78250000D03*
%TD*%
%TO.N,/COL4*%
D15*
X66290000Y-62090000D02*
X73400000Y-69200000D01*
X73400000Y-69200000D02*
X73400000Y-84900000D01*
X73400000Y-84900000D02*
X76000000Y-87500000D01*
%TO.N,/COL5*%
X77000000Y-87500000D02*
X77945000Y-86555000D01*
X77945000Y-86555000D02*
X77945000Y-85319899D01*
X77945000Y-85319899D02*
X73800000Y-81174899D01*
X73800000Y-81174899D02*
X73800000Y-68751471D01*
X73800000Y-68751471D02*
X66538529Y-61490000D01*
X66538529Y-61490000D02*
X64350000Y-61490000D01*
X64350000Y-61490000D02*
X63750000Y-62090000D01*
%TO.N,/COL4*%
X116115000Y-102460000D02*
X111055256Y-102460000D01*
X111055256Y-102460000D02*
X98785256Y-90190000D01*
X98785256Y-90190000D02*
X76000000Y-90190000D01*
%TO.N,/COL5*%
X77000000Y-89590000D02*
X122295000Y-89590000D01*
X122295000Y-89590000D02*
X135165000Y-102460000D01*
%TO.N,Net-(D24-K)*%
X110400000Y-118970000D02*
X122465000Y-118970000D01*
%TO.N,/COL4*%
X211365000Y-102460000D02*
X211365000Y-83410000D01*
X211365000Y-96330000D02*
X211365000Y-102460000D01*
X120055000Y-79470000D02*
X135818402Y-79470000D01*
X116115000Y-83410000D02*
X120055000Y-79470000D01*
X135818402Y-79470000D02*
X145938402Y-89590000D01*
X204625000Y-89590000D02*
X211365000Y-96330000D01*
X145938402Y-89590000D02*
X204625000Y-89590000D01*
%TO.N,/ROW1*%
X54712500Y-88490000D02*
X72300000Y-88490000D01*
X72300000Y-88490000D02*
X91350000Y-88490000D01*
X129450000Y-88490000D02*
X110400000Y-88490000D01*
%TO.N,/COL3*%
X97065000Y-102460000D02*
X97065000Y-121510000D01*
X188375000Y-117570000D02*
X192315000Y-121510000D01*
X97065000Y-83410000D02*
X96030786Y-83410000D01*
X101005000Y-117570000D02*
X188375000Y-117570000D01*
X96030786Y-83410000D02*
X74710786Y-62090000D01*
X97065000Y-121510000D02*
X101005000Y-117570000D01*
X74710786Y-62090000D02*
X71370000Y-62090000D01*
X192315000Y-102460000D02*
X192315000Y-121510000D01*
%TO.N,Net-(D11-K)*%
X54712500Y-99920000D02*
X65315000Y-99920000D01*
%TO.N,/ROW3*%
X110400000Y-107540000D02*
X129450000Y-107540000D01*
X54712500Y-107540000D02*
X72300000Y-107540000D01*
X72300000Y-107540000D02*
X91350000Y-107540000D01*
%TO.N,Net-(D14-K)*%
X110400000Y-99920000D02*
X122465000Y-99920000D01*
%TO.N,Net-(D27-K)*%
X167550000Y-118970000D02*
X179615000Y-118970000D01*
%TO.N,Net-(D17-K)*%
X167550000Y-99920000D02*
X179615000Y-99920000D01*
%TO.N,/COL2*%
X68830000Y-62090000D02*
X69430000Y-61490000D01*
X74676472Y-61490000D02*
X90211472Y-77025000D01*
X166880000Y-77025000D02*
X173265000Y-83410000D01*
X78015000Y-71275000D02*
X78015000Y-83410000D01*
X69430000Y-61490000D02*
X74676472Y-61490000D01*
X68830000Y-62090000D02*
X78015000Y-71275000D01*
X90211472Y-77025000D02*
X166880000Y-77025000D01*
%TO.N,Net-(D29-K)*%
X217715000Y-118970000D02*
X205650000Y-118970000D01*
%TO.N,Net-(D30-K)*%
X224700000Y-118970000D02*
X236765000Y-118970000D01*
%TO.N,Net-(D25-K)*%
X129450000Y-118970000D02*
X141515000Y-118970000D01*
%TO.N,Net-(D20-K)*%
X224700000Y-99920000D02*
X236765000Y-99920000D01*
%TO.N,/COL5*%
X135165000Y-102460000D02*
X135165000Y-83410000D01*
%TO.N,/ROW2*%
X167550000Y-88490000D02*
X186600000Y-88490000D01*
X186600000Y-88490000D02*
X205650000Y-88490000D01*
X148500000Y-88490000D02*
X167550000Y-88490000D01*
%TO.N,/COL1*%
X58965000Y-121510000D02*
X58965000Y-123563402D01*
X151002056Y-127690000D02*
X154215000Y-124477056D01*
X71370000Y-78250000D02*
X66210000Y-83410000D01*
X63091598Y-127690000D02*
X151002056Y-127690000D01*
X58965000Y-123563402D02*
X63091598Y-127690000D01*
X154215000Y-124477056D02*
X154215000Y-121510000D01*
X66210000Y-83410000D02*
X58965000Y-83410000D01*
%TO.N,Net-(D1-K)*%
X65315000Y-80870000D02*
X54712500Y-80870000D01*
%TO.N,Net-(D26-K)*%
X148500000Y-118970000D02*
X160565000Y-118970000D01*
%TO.N,Net-(D21-K)*%
X54712500Y-118970000D02*
X65315000Y-118970000D01*
%TO.N,/ROW4*%
X167550000Y-107540000D02*
X186600000Y-107540000D01*
X148500000Y-107540000D02*
X167550000Y-107540000D01*
X205650000Y-107540000D02*
X224700000Y-107540000D01*
%TO.N,Net-(D12-K)*%
X72300000Y-99920000D02*
X84365000Y-99920000D01*
%TO.N,Net-(D22-K)*%
X72300000Y-118970000D02*
X84365000Y-118970000D01*
%TO.N,Net-(D18-K)*%
X186600000Y-99920000D02*
X198665000Y-99920000D01*
%TO.N,Net-(D16-K)*%
X148500000Y-99920000D02*
X160565000Y-99920000D01*
%TO.N,Net-(D13-K)*%
X91350000Y-99920000D02*
X103415000Y-99920000D01*
%TO.N,/ROW1*%
X91350000Y-88490000D02*
X110400000Y-88490000D01*
%TD*%
M02*
