M48
; DRILL file KiCad 10.0.5 date 2026-09-01T18:48:38
; FORMAT={-:-/ absolute / inch / decimal}
; #@! TF.CreationDate,2026-09-01T18:48:38+01:00
; #@! TF.GenerationSoftware,Kicad,Pcbnew,10.0.5
; #@! TF.FileFunction,NonPlated,1,2,NPTH
FMAT,2
INCH
; #@! TA.AperFunction,NonPlated,NPTH,ComponentDrill
T1C0.0669
; #@! TA.AperFunction,NonPlated,NPTH,ComponentDrill
T2C0.1575
%
G90
G05
T1
X2.2715Y-3.3839
X2.2715Y-4.1339
X2.2715Y-4.8839
X2.6715Y-3.3839
X2.6715Y-4.1339
X2.6715Y-4.8839
X3.0215Y-3.3839
X3.0215Y-4.1339
X3.0215Y-4.8839
X3.4215Y-3.3839
X3.4215Y-4.1339
X3.4215Y-4.8839
X3.7715Y-3.3839
X3.7715Y-4.1339
X3.7715Y-4.8839
X4.1715Y-3.3839
X4.1715Y-4.1339
X4.1715Y-4.8839
X4.5215Y-3.3839
X4.5215Y-4.1339
X4.5215Y-4.8839
X4.9215Y-3.3839
X4.9215Y-4.1339
X4.9215Y-4.8839
X5.2715Y-3.3839
X5.2715Y-4.1339
X5.2715Y-4.8839
X5.6715Y-3.3839
X5.6715Y-4.1339
X5.6715Y-4.8839
X6.0215Y-3.3839
X6.0215Y-4.1339
X6.0215Y-4.8839
X6.4215Y-3.3839
X6.4215Y-4.1339
X6.4215Y-4.8839
X6.7715Y-3.3839
X6.7715Y-4.1339
X6.7715Y-4.8839
X7.1715Y-3.3839
X7.1715Y-4.1339
X7.1715Y-4.8839
X7.5215Y-3.3839
X7.5215Y-4.1339
X7.5215Y-4.8839
X7.9215Y-3.3839
X7.9215Y-4.1339
X7.9215Y-4.8839
X8.2715Y-3.3839
X8.2715Y-4.1339
X8.2715Y-4.8839
X8.6715Y-3.3839
X8.6715Y-4.1339
X8.6715Y-4.8839
X9.0215Y-3.3839
X9.0215Y-4.1339
X9.0215Y-4.8839
X9.4215Y-3.3839
X9.4215Y-4.1339
X9.4215Y-4.8839
T2
X2.4715Y-3.3839
X2.4715Y-4.1339
X2.4715Y-4.8839
X3.2215Y-3.3839
X3.2215Y-4.1339
X3.2215Y-4.8839
X3.9715Y-3.3839
X3.9715Y-4.1339
X3.9715Y-4.8839
X4.7215Y-3.3839
X4.7215Y-4.1339
X4.7215Y-4.8839
X5.4715Y-3.3839
X5.4715Y-4.1339
X5.4715Y-4.8839
X6.2215Y-3.3839
X6.2215Y-4.1339
X6.2215Y-4.8839
X6.9715Y-3.3839
X6.9715Y-4.1339
X6.9715Y-4.8839
X7.7215Y-3.3839
X7.7215Y-4.1339
X7.7215Y-4.8839
X8.4715Y-3.3839
X8.4715Y-4.1339
X8.4715Y-4.8839
X9.2215Y-3.3839
X9.2215Y-4.1339
X9.2215Y-4.8839
M30
