%TF.GenerationSoftware,KiCad,Pcbnew,10.0.5*%
%TF.CreationDate,2026-09-01T18:48:01+01:00*%
%TF.ProjectId,the-crux,7468652d-6372-4757-982e-6b696361645f,rev?*%
%TF.SameCoordinates,Original*%
%TF.FileFunction,Soldermask,Top*%
%TF.FilePolarity,Negative*%
%FSLAX46Y46*%
G04 Gerber Fmt 4.6, Leading zero omitted, Abs format (unit mm)*
G04 Created by KiCad (PCBNEW 10.0.5) date 2026-09-01 18:48:01*
%MOMM*%
%LPD*%
G01*
G04 APERTURE LIST*
G04 Aperture macros list*
%AMRoundRect*
0 Rectangle with rounded corners*
0 $1 Rounding radius*
0 $2 $3 $4 $5 $6 $7 $8 $9 X,Y pos of 4 corners*
0 Add a 4 corners polygon primitive as box body*
4,1,4,$2,$3,$4,$5,$6,$7,$8,$9,$2,$3,0*
0 Add four circle primitives for the rounded corners*
1,1,$1+$1,$2,$3*
1,1,$1+$1,$4,$5*
1,1,$1+$1,$6,$7*
1,1,$1+$1,$8,$9*
0 Add four rect primitives between the rounded corners*
20,1,$1+$1,$2,$3,$4,$5,0*
20,1,$1+$1,$4,$5,$6,$7,0*
20,1,$1+$1,$6,$7,$8,$9,0*
20,1,$1+$1,$8,$9,$2,$3,0*%
G04 Aperture macros list end*
%ADD10C,2.200000*%
%ADD11RoundRect,0.250000X-0.550000X0.550000X-0.550000X-0.550000X0.550000X-0.550000X0.550000X0.550000X0*%
%ADD12C,1.600000*%
%ADD13C,4.400000*%
%ADD14RoundRect,0.550800X0.500000X-0.875000X0.500000X0.875000X-0.500000X0.875000X-0.500000X-0.875000X0*%
%ADD15C,1.700000*%
%ADD16RoundRect,0.275000X-0.975000X-0.275000X0.975000X-0.275000X0.975000X0.275000X-0.975000X0.275000X0*%
G04 APERTURE END LIST*
D10*
%TO.C,SW24*%
X122465000Y-118970000D03*
X116115000Y-121510000D03*
%TD*%
D11*
%TO.C,D4*%
X110400000Y-80870000D03*
D12*
X110400000Y-88490000D03*
%TD*%
D13*
%TO.C,H3*%
X224700000Y-95475000D03*
%TD*%
D10*
%TO.C,SW13*%
X103415000Y-99920000D03*
X97065000Y-102460000D03*
%TD*%
D11*
%TO.C,D11*%
X54712500Y-99920000D03*
D12*
X54712500Y-107540000D03*
%TD*%
D10*
%TO.C,SW14*%
X122465000Y-99920000D03*
X116115000Y-102460000D03*
%TD*%
%TO.C,SW8*%
X198665000Y-80870000D03*
X192315000Y-83410000D03*
%TD*%
D11*
%TO.C,D3*%
X91350000Y-80870000D03*
D12*
X91350000Y-88490000D03*
%TD*%
D11*
%TO.C,D27*%
X167550000Y-118970000D03*
D12*
X167550000Y-126590000D03*
%TD*%
D11*
%TO.C,D23*%
X91350000Y-118970000D03*
D12*
X91350000Y-126590000D03*
%TD*%
D10*
%TO.C,SW17*%
X179615000Y-99920000D03*
X173265000Y-102460000D03*
%TD*%
%TO.C,SW29*%
X217715000Y-118970000D03*
X211365000Y-121510000D03*
%TD*%
%TO.C,SW7*%
X179615000Y-80870000D03*
X173265000Y-83410000D03*
%TD*%
D11*
%TO.C,D30*%
X224700000Y-118970000D03*
D12*
X224700000Y-126590000D03*
%TD*%
D11*
%TO.C,D25*%
X129450000Y-118970000D03*
D12*
X129450000Y-126590000D03*
%TD*%
D10*
%TO.C,SW20*%
X236765000Y-99920000D03*
X230415000Y-102460000D03*
%TD*%
D11*
%TO.C,D7*%
X167550000Y-80870000D03*
D12*
X167550000Y-88490000D03*
%TD*%
D11*
%TO.C,D14*%
X110400000Y-99920000D03*
D12*
X110400000Y-107540000D03*
%TD*%
D10*
%TO.C,SW23*%
X103415000Y-118970000D03*
X97065000Y-121510000D03*
%TD*%
%TO.C,SW6*%
X160565000Y-80870000D03*
X154215000Y-83410000D03*
%TD*%
%TO.C,SW11*%
X65315000Y-99920000D03*
X58965000Y-102460000D03*
%TD*%
D11*
%TO.C,D2*%
X72300000Y-80870000D03*
D12*
X72300000Y-88490000D03*
%TD*%
D10*
%TO.C,SW1*%
X65315000Y-80870000D03*
X58965000Y-83410000D03*
%TD*%
D13*
%TO.C,H4*%
X224700000Y-114525000D03*
%TD*%
D11*
%TO.C,D26*%
X148500000Y-118970000D03*
D12*
X148500000Y-126590000D03*
%TD*%
D11*
%TO.C,D5*%
X129450000Y-80870000D03*
D12*
X129450000Y-88490000D03*
%TD*%
D10*
%TO.C,SW25*%
X141515000Y-118970000D03*
X135165000Y-121510000D03*
%TD*%
D13*
%TO.C,H1*%
X72300000Y-95475000D03*
%TD*%
D10*
%TO.C,SW21*%
X65315000Y-118970000D03*
X58965000Y-121510000D03*
%TD*%
D11*
%TO.C,D19*%
X205650000Y-99920000D03*
D12*
X205650000Y-107540000D03*
%TD*%
D10*
%TO.C,SW26*%
X160565000Y-118970000D03*
X154215000Y-121510000D03*
%TD*%
%TO.C,SW19*%
X217715000Y-99920000D03*
X211365000Y-102460000D03*
%TD*%
D11*
%TO.C,D8*%
X186600000Y-80870000D03*
D12*
X186600000Y-88490000D03*
%TD*%
D11*
%TO.C,D15*%
X129450000Y-99920000D03*
D12*
X129450000Y-107540000D03*
%TD*%
D11*
%TO.C,D12*%
X72300000Y-99920000D03*
D12*
X72300000Y-107540000D03*
%TD*%
D10*
%TO.C,SW22*%
X84365000Y-118970000D03*
X78015000Y-121510000D03*
%TD*%
%TO.C,SW9*%
X217715000Y-80870000D03*
X211365000Y-83410000D03*
%TD*%
D11*
%TO.C,D18*%
X186600000Y-99920000D03*
D12*
X186600000Y-107540000D03*
%TD*%
D10*
%TO.C,SW28*%
X198665000Y-118970000D03*
X192315000Y-121510000D03*
%TD*%
%TO.C,SW30*%
X236765000Y-118970000D03*
X230415000Y-121510000D03*
%TD*%
D11*
%TO.C,D10*%
X224700000Y-80870000D03*
D12*
X224700000Y-88490000D03*
%TD*%
D11*
%TO.C,D22*%
X72300000Y-118970000D03*
D12*
X72300000Y-126590000D03*
%TD*%
D10*
%TO.C,SW27*%
X179615000Y-118970000D03*
X173265000Y-121510000D03*
%TD*%
%TO.C,SW10*%
X236765000Y-80870000D03*
X230415000Y-83410000D03*
%TD*%
D13*
%TO.C,H2*%
X72300000Y-114525000D03*
%TD*%
D11*
%TO.C,D29*%
X205650000Y-118970000D03*
D12*
X205650000Y-126590000D03*
%TD*%
D10*
%TO.C,SW16*%
X160565000Y-99920000D03*
X154215000Y-102460000D03*
%TD*%
%TO.C,SW15*%
X141515000Y-99920000D03*
X135165000Y-102460000D03*
%TD*%
D11*
%TO.C,D6*%
X148500000Y-80870000D03*
D12*
X148500000Y-88490000D03*
%TD*%
D11*
%TO.C,D24*%
X110400000Y-118970000D03*
D12*
X110400000Y-126590000D03*
%TD*%
D11*
%TO.C,D13*%
X91350000Y-99920000D03*
D12*
X91350000Y-107540000D03*
%TD*%
D11*
%TO.C,D17*%
X167550000Y-99920000D03*
D12*
X167550000Y-107540000D03*
%TD*%
D11*
%TO.C,D28*%
X186600000Y-118970000D03*
D12*
X186600000Y-126590000D03*
%TD*%
D10*
%TO.C,SW18*%
X198665000Y-99920000D03*
X192315000Y-102460000D03*
%TD*%
D11*
%TO.C,D1*%
X54712500Y-80870000D03*
D12*
X54712500Y-88490000D03*
%TD*%
D10*
%TO.C,SW3*%
X103415000Y-80870000D03*
X97065000Y-83410000D03*
%TD*%
D11*
%TO.C,D20*%
X224700000Y-99920000D03*
D12*
X224700000Y-107540000D03*
%TD*%
D10*
%TO.C,SW2*%
X84365000Y-80870000D03*
X78015000Y-83410000D03*
%TD*%
%TO.C,SW5*%
X141515000Y-80870000D03*
X135165000Y-83410000D03*
%TD*%
%TO.C,SW4*%
X122465000Y-80870000D03*
X116115000Y-83410000D03*
%TD*%
D11*
%TO.C,D21*%
X54712500Y-118970000D03*
D12*
X54712500Y-126590000D03*
%TD*%
D11*
%TO.C,D16*%
X148500000Y-99920000D03*
D12*
X148500000Y-107540000D03*
%TD*%
D11*
%TO.C,D9*%
X205650000Y-80870000D03*
D12*
X205650000Y-88490000D03*
%TD*%
D10*
%TO.C,SW12*%
X84365000Y-99920000D03*
X78015000Y-102460000D03*
%TD*%
D14*
%TO.C,U1*%
X56130000Y-78255000D03*
X58670000Y-78255000D03*
X61210000Y-78255000D03*
X63750000Y-78255000D03*
X66290000Y-78255000D03*
X68830000Y-78255000D03*
X71370000Y-78255000D03*
X71370000Y-62090000D03*
X68830000Y-62090000D03*
X66290000Y-62090000D03*
X63750000Y-62090000D03*
X61210000Y-62090000D03*
X58670000Y-62090000D03*
X56130000Y-62090000D03*
D15*
X55372000Y-71343000D03*
X55372000Y-68803000D03*
X57912000Y-71343000D03*
X57912000Y-68803000D03*
D16*
X72390000Y-71343000D03*
X72390000Y-68803000D03*
%TD*%
M02*
